<svg width="27" height="27" viewBox="0 0 27 27" fill="none" xmlns="http://www.w3.org/2000/svg">
<path d="M21.375 3.375H5.625C4.3875 3.375 3.375 4.3875 3.375 5.625V21.375C3.375 22.6125 4.3875 23.625 5.625 23.625H21.375C22.6125 23.625 23.625 22.6125 23.625 21.375V5.625C23.625 4.3875 22.6125 3.375 21.375 3.375ZM12.375 19.125H7.875C7.25625 19.125 6.75 18.6188 6.75 18C6.75 17.3812 7.25625 16.875 7.875 16.875H12.375C12.9938 16.875 13.5 17.3812 13.5 18C13.5 18.6188 12.9938 19.125 12.375 19.125ZM15.75 14.625H11.25C10.6312 14.625 10.125 14.1188 10.125 13.5C10.125 12.8812 10.6312 12.375 11.25 12.375H15.75C16.3688 12.375 16.875 12.8812 16.875 13.5C16.875 14.1188 16.3688 14.625 15.75 14.625ZM19.125 10.125H14.625C14.0062 10.125 13.5 9.61875 13.5 9C13.5 8.38125 14.0062 7.875 14.625 7.875H19.125C19.7438 7.875 20.25 8.38125 20.25 9C20.25 9.61875 19.7438 10.125 19.125 10.125Z" fill="#666666"/>
</svg>
